<?xml version="1.0" encoding="UTF-8" standalone="no"?>
<!DOCTYPE svg PUBLIC "-//W3C//DTD SVG 1.1//EN"
 "http://www.w3.org/Graphics/SVG/1.1/DTD/svg11.dtd">
<!-- Generated by graphviz version 2.38.0 (20140413.2041)
 -->
<!-- Title: %3 Pages: 1 -->
<svg width="1170pt" height="589pt"
 viewBox="0.00 0.00 1170.23 589.00" xmlns="http://www.w3.org/2000/svg" xmlns:xlink="http://www.w3.org/1999/xlink">
<g id="graph0" class="graph" transform="scale(1 1) rotate(0) translate(4 585)">
<title>%3</title>
<polygon fill="white" stroke="none" points="-4,4 -4,-585 1166.23,-585 1166.23,4 -4,4"/>
<g id="clust1" class="cluster"><title>cluster_pooled_rep</title>
<path fill="gainsboro" stroke="gainsboro" d="M560,-199C560,-199 794.228,-199 794.228,-199 800.228,-199 806.228,-205 806.228,-211 806.228,-211 806.228,-370 806.228,-370 806.228,-376 800.228,-382 794.228,-382 794.228,-382 560,-382 560,-382 554,-382 548,-376 548,-370 548,-370 548,-211 548,-211 548,-205 554,-199 560,-199"/>
<text text-anchor="middle" x="677.114" y="-366.8" font-family="Times,serif" font-size="14.00">Pooled replicate</text>
</g>
<g id="clust2" class="cluster"><title>cluster_rep1</title>
<path fill="gainsboro" stroke="gainsboro" d="M20,-8C20,-8 700.114,-8 700.114,-8 706.114,-8 712.114,-14 712.114,-20 712.114,-20 712.114,-179 712.114,-179 712.114,-185 706.114,-191 700.114,-191 700.114,-191 20,-191 20,-191 14,-191 8,-185 8,-179 8,-179 8,-20 8,-20 8,-14 14,-8 20,-8"/>
<text text-anchor="middle" x="360.057" y="-175.8" font-family="Times,serif" font-size="14.00">Replicate 1</text>
</g>
<g id="clust3" class="cluster"><title>cluster_rep1_rep2</title>
<path fill="gainsboro" stroke="gainsboro" d="M840.228,-281C840.228,-281 978.228,-281 978.228,-281 984.228,-281 990.228,-287 990.228,-293 990.228,-293 990.228,-344 990.228,-344 990.228,-350 984.228,-356 978.228,-356 978.228,-356 840.228,-356 840.228,-356 834.228,-356 828.228,-350 828.228,-344 828.228,-344 828.228,-293 828.228,-293 828.228,-287 834.228,-281 840.228,-281"/>
<text text-anchor="middle" x="909.228" y="-340.8" font-family="Times,serif" font-size="14.00">Rep. 1 vs. Rep. 2</text>
</g>
<g id="clust4" class="cluster"><title>cluster_rep2</title>
<path fill="gainsboro" stroke="gainsboro" d="M20,-390C20,-390 700.114,-390 700.114,-390 706.114,-390 712.114,-396 712.114,-402 712.114,-402 712.114,-561 712.114,-561 712.114,-567 706.114,-573 700.114,-573 700.114,-573 20,-573 20,-573 14,-573 8,-567 8,-561 8,-561 8,-402 8,-402 8,-396 14,-390 20,-390"/>
<text text-anchor="middle" x="360.057" y="-557.8" font-family="Times,serif" font-size="14.00">Replicate 2</text>
</g>
<!-- IDR QC log&#45; -->
<g id="IDR QC log&#45;" class="node"><title>IDR QC log&#45;</title>
<g id="a_IDR QC log&#45;"><a xlink:href=".././qc/output_1stKD_TAZ_IDR_final.qc" xlink:title="./qc/output_1stKD_TAZ_IDR_final.qc" target="_blank">
<ellipse fill="whitesmoke" stroke="black" cx="1135.23" cy="-307" rx="27" ry="18"/>
<text text-anchor="middle" x="1135.23" y="-304.5" font-family="Times,serif" font-size="10.00">IDR QC log</text>
</a>
</g>
</g>
<!-- IDR peak&#45;rep1&#45;rep2 -->
<g id="IDR peak&#45;rep1&#45;rep2" class="node"><title>IDR peak&#45;rep1&#45;rep2</title>
<g id="a_IDR peak&#45;rep1&#45;rep2"><a xlink:href=".././peak/macs2/idr/true_reps/rep1-rep2/output_1stKD_TAZ_rep1-rep2.IDR0.1.narrowPeak.gz" xlink:title="./peak/macs2/idr/true_reps/rep1&#45;rep2/output_1stKD_TAZ_rep1&#45;rep2.IDR0.1.narrowPeak.gz" target="_blank">
<ellipse fill="whitesmoke" stroke="black" cx="955.228" cy="-307" rx="27" ry="18"/>
<text text-anchor="middle" x="955.228" y="-304.5" font-family="Times,serif" font-size="10.00">IDR peak</text>
</a>
</g>
</g>
<!-- IDR QC&#45; -->
<g id="IDR QC&#45;" class="node"><title>IDR QC&#45;</title>
<path fill="pink" stroke="black" d="M1060.23,-325C1060.23,-325 1030.23,-325 1030.23,-325 1024.23,-325 1018.23,-319 1018.23,-313 1018.23,-313 1018.23,-301 1018.23,-301 1018.23,-295 1024.23,-289 1030.23,-289 1030.23,-289 1060.23,-289 1060.23,-289 1066.23,-289 1072.23,-295 1072.23,-301 1072.23,-301 1072.23,-313 1072.23,-313 1072.23,-319 1066.23,-325 1060.23,-325"/>
<text text-anchor="middle" x="1045.23" y="-303.9" font-family="Times,serif" font-size="12.00">IDR QC</text>
</g>
<!-- IDR peak&#45;rep1&#45;rep2&#45;&gt;IDR QC&#45; -->
<g id="edge10" class="edge"><title>IDR peak&#45;rep1&#45;rep2&#45;&gt;IDR QC&#45;</title>
<path fill="none" stroke="gray" d="M982.631,-307C992.202,-307 1003.1,-307 1013.05,-307"/>
<polygon fill="gray" stroke="gray" points="1013.15,-308.75 1018.15,-307 1013.15,-305.25 1013.15,-308.75"/>
</g>
<!-- bam\n33M&#45;rep1 -->
<g id="bam\n33M&#45;rep1" class="node"><title>bam\n33M&#45;rep1</title>
<g id="a_bam\n33M&#45;rep1"><a xlink:href=".././align/rep1/967_1_S31_L007_R1_001.bam" xlink:title="./align/rep1/967_1_S31_L007_R1_001.bam" target="_blank">
<ellipse fill="whitesmoke" stroke="black" cx="223" cy="-128" rx="27" ry="18"/>
<text text-anchor="middle" x="223" y="-131" font-family="Times,serif" font-size="10.00">bam</text>
<text text-anchor="middle" x="223" y="-120" font-family="Times,serif" font-size="10.00">33M</text>
</a>
</g>
</g>
<!-- FILTER&#45;rep1 -->
<g id="FILTER&#45;rep1" class="node"><title>FILTER&#45;rep1</title>
<path fill="lightcoral" stroke="black" d="M328,-146C328,-146 298,-146 298,-146 292,-146 286,-140 286,-134 286,-134 286,-122 286,-122 286,-116 292,-110 298,-110 298,-110 328,-110 328,-110 334,-110 340,-116 340,-122 340,-122 340,-134 340,-134 340,-140 334,-146 328,-146"/>
<text text-anchor="middle" x="313" y="-124.9" font-family="Times,serif" font-size="12.00">FILTER</text>
</g>
<!-- bam\n33M&#45;rep1&#45;&gt;FILTER&#45;rep1 -->
<g id="edge18" class="edge"><title>bam\n33M&#45;rep1&#45;&gt;FILTER&#45;rep1</title>
<path fill="none" stroke="gray" d="M250.403,-128C259.974,-128 270.875,-128 280.818,-128"/>
<polygon fill="gray" stroke="gray" points="280.919,-129.75 285.919,-128 280.919,-126.25 280.919,-129.75"/>
</g>
<!-- bam\n71M&#45;rep2 -->
<g id="bam\n71M&#45;rep2" class="node"><title>bam\n71M&#45;rep2</title>
<g id="a_bam\n71M&#45;rep2"><a xlink:href=".././align/rep2/967_2_S35_L008_R1_001.bam" xlink:title="./align/rep2/967_2_S35_L008_R1_001.bam" target="_blank">
<ellipse fill="whitesmoke" stroke="black" cx="223" cy="-429" rx="27" ry="18"/>
<text text-anchor="middle" x="223" y="-432" font-family="Times,serif" font-size="10.00">bam</text>
<text text-anchor="middle" x="223" y="-421" font-family="Times,serif" font-size="10.00">71M</text>
</a>
</g>
</g>
<!-- FILTER&#45;rep2 -->
<g id="FILTER&#45;rep2" class="node"><title>FILTER&#45;rep2</title>
<path fill="lightcoral" stroke="black" d="M328,-447C328,-447 298,-447 298,-447 292,-447 286,-441 286,-435 286,-435 286,-423 286,-423 286,-417 292,-411 298,-411 298,-411 328,-411 328,-411 334,-411 340,-417 340,-423 340,-423 340,-435 340,-435 340,-441 334,-447 328,-447"/>
<text text-anchor="middle" x="313" y="-425.9" font-family="Times,serif" font-size="12.00">FILTER</text>
</g>
<!-- bam\n71M&#45;rep2&#45;&gt;FILTER&#45;rep2 -->
<g id="edge28" class="edge"><title>bam\n71M&#45;rep2&#45;&gt;FILTER&#45;rep2</title>
<path fill="none" stroke="gray" d="M250.403,-429C259.974,-429 270.875,-429 280.818,-429"/>
<polygon fill="gray" stroke="gray" points="280.919,-430.75 285.919,-429 280.919,-427.25 280.919,-430.75"/>
</g>
<!-- fastq\n33M&#45;rep1 -->
<g id="fastq\n33M&#45;rep1" class="node"><title>fastq\n33M&#45;rep1</title>
<g id="a_fastq\n33M&#45;rep1"><a xlink:title="/mnt/work1/users/carlsgroup/workinprogres/nibeh/180913_D00165_0223_BCCGG2ANXX_Schimmer_Mingjing/fastq/967_1_S31_L007_R1_001.fastq.gz" target="_blank">
<ellipse fill="whitesmoke" stroke="black" cx="43" cy="-128" rx="27" ry="18"/>
<text text-anchor="middle" x="43" y="-131" font-family="Times,serif" font-size="10.00">fastq</text>
<text text-anchor="middle" x="43" y="-120" font-family="Times,serif" font-size="10.00">33M</text>
</a>
</g>
</g>
<!-- BOWTIE2&#45;rep1 -->
<g id="BOWTIE2&#45;rep1" class="node"><title>BOWTIE2&#45;rep1</title>
<path fill="salmon" stroke="black" d="M148,-146C148,-146 118,-146 118,-146 112,-146 106,-140 106,-134 106,-134 106,-122 106,-122 106,-116 112,-110 118,-110 118,-110 148,-110 148,-110 154,-110 160,-116 160,-122 160,-122 160,-134 160,-134 160,-140 154,-146 148,-146"/>
<text text-anchor="middle" x="133" y="-124.9" font-family="Times,serif" font-size="12.00">BOWTIE2</text>
</g>
<!-- fastq\n33M&#45;rep1&#45;&gt;BOWTIE2&#45;rep1 -->
<g id="edge16" class="edge"><title>fastq\n33M&#45;rep1&#45;&gt;BOWTIE2&#45;rep1</title>
<path fill="none" stroke="gray" d="M70.4029,-128C79.9738,-128 90.8745,-128 100.818,-128"/>
<polygon fill="gray" stroke="gray" points="100.919,-129.75 105.919,-128 100.919,-126.25 100.919,-129.75"/>
</g>
<!-- fastq\n71M&#45;rep2 -->
<g id="fastq\n71M&#45;rep2" class="node"><title>fastq\n71M&#45;rep2</title>
<g id="a_fastq\n71M&#45;rep2"><a xlink:title="/mnt/work1/users/carlsgroup/workinprogres/nibeh/180913_D00165_0223_BCCGG2ANXX_Schimmer_Mingjing/fastq/967_2_S35_L008_R1_001.fastq.gz" target="_blank">
<ellipse fill="whitesmoke" stroke="black" cx="43" cy="-429" rx="27" ry="18"/>
<text text-anchor="middle" x="43" y="-432" font-family="Times,serif" font-size="10.00">fastq</text>
<text text-anchor="middle" x="43" y="-421" font-family="Times,serif" font-size="10.00">71M</text>
</a>
</g>
</g>
<!-- BOWTIE2&#45;rep2 -->
<g id="BOWTIE2&#45;rep2" class="node"><title>BOWTIE2&#45;rep2</title>
<path fill="salmon" stroke="black" d="M148,-447C148,-447 118,-447 118,-447 112,-447 106,-441 106,-435 106,-435 106,-423 106,-423 106,-417 112,-411 118,-411 118,-411 148,-411 148,-411 154,-411 160,-417 160,-423 160,-423 160,-435 160,-435 160,-441 154,-447 148,-447"/>
<text text-anchor="middle" x="133" y="-425.9" font-family="Times,serif" font-size="12.00">BOWTIE2</text>
</g>
<!-- fastq\n71M&#45;rep2&#45;&gt;BOWTIE2&#45;rep2 -->
<g id="edge26" class="edge"><title>fastq\n71M&#45;rep2&#45;&gt;BOWTIE2&#45;rep2</title>
<path fill="none" stroke="gray" d="M70.4029,-429C79.9738,-429 90.8745,-429 100.818,-429"/>
<polygon fill="gray" stroke="gray" points="100.919,-430.75 105.919,-429 100.919,-427.25 100.919,-430.75"/>
</g>
<!-- filt. bam\n15M&#45;rep1 -->
<g id="filt. bam\n15M&#45;rep1" class="node"><title>filt. bam\n15M&#45;rep1</title>
<g id="a_filt. bam\n15M&#45;rep1"><a xlink:href=".././align/rep1/967_1_S31_L007_R1_001.nodup.bam" xlink:title="./align/rep1/967_1_S31_L007_R1_001.nodup.bam" target="_blank">
<ellipse fill="whitesmoke" stroke="black" cx="403" cy="-128" rx="27" ry="18"/>
<text text-anchor="middle" x="403" y="-131" font-family="Times,serif" font-size="10.00">filt. bam</text>
<text text-anchor="middle" x="403" y="-120" font-family="Times,serif" font-size="10.00">15M</text>
</a>
</g>
</g>
<!-- tag&#45;align&#45;rep1 -->
<g id="tag&#45;align&#45;rep1" class="node"><title>tag&#45;align&#45;rep1</title>
<g id="a_tag&#45;align&#45;rep1"><a xlink:href=".././align/rep1/967_1_S31_L007_R1_001.nodup.tn5.tagAlign.gz" xlink:title="./align/rep1/967_1_S31_L007_R1_001.nodup.tn5.tagAlign.gz" target="_blank">
<ellipse fill="whitesmoke" stroke="black" cx="493" cy="-128" rx="27" ry="18"/>
<text text-anchor="middle" x="493" y="-125.5" font-family="Times,serif" font-size="10.00">tag&#45;align</text>
</a>
</g>
</g>
<!-- filt. bam\n15M&#45;rep1&#45;&gt;tag&#45;align&#45;rep1 -->
<g id="edge20" class="edge"><title>filt. bam\n15M&#45;rep1&#45;&gt;tag&#45;align&#45;rep1</title>
<path fill="none" stroke="gray" d="M430.403,-128C439.974,-128 450.875,-128 460.818,-128"/>
<polygon fill="gray" stroke="gray" points="460.919,-129.75 465.919,-128 460.919,-126.25 460.919,-129.75"/>
</g>
<!-- filt. bam\n27M&#45;rep2 -->
<g id="filt. bam\n27M&#45;rep2" class="node"><title>filt. bam\n27M&#45;rep2</title>
<g id="a_filt. bam\n27M&#45;rep2"><a xlink:href=".././align/rep2/967_2_S35_L008_R1_001.nodup.bam" xlink:title="./align/rep2/967_2_S35_L008_R1_001.nodup.bam" target="_blank">
<ellipse fill="whitesmoke" stroke="black" cx="403" cy="-429" rx="27" ry="18"/>
<text text-anchor="middle" x="403" y="-432" font-family="Times,serif" font-size="10.00">filt. bam</text>
<text text-anchor="middle" x="403" y="-421" font-family="Times,serif" font-size="10.00">27M</text>
</a>
</g>
</g>
<!-- tag&#45;align&#45;rep2 -->
<g id="tag&#45;align&#45;rep2" class="node"><title>tag&#45;align&#45;rep2</title>
<g id="a_tag&#45;align&#45;rep2"><a xlink:href=".././align/rep2/967_2_S35_L008_R1_001.nodup.tn5.tagAlign.gz" xlink:title="./align/rep2/967_2_S35_L008_R1_001.nodup.tn5.tagAlign.gz" target="_blank">
<ellipse fill="whitesmoke" stroke="black" cx="493" cy="-429" rx="27" ry="18"/>
<text text-anchor="middle" x="493" y="-426.5" font-family="Times,serif" font-size="10.00">tag&#45;align</text>
</a>
</g>
</g>
<!-- filt. bam\n27M&#45;rep2&#45;&gt;tag&#45;align&#45;rep2 -->
<g id="edge30" class="edge"><title>filt. bam\n27M&#45;rep2&#45;&gt;tag&#45;align&#45;rep2</title>
<path fill="none" stroke="gray" d="M430.403,-429C439.974,-429 450.875,-429 460.818,-429"/>
<polygon fill="gray" stroke="gray" points="460.919,-430.75 465.919,-429 460.919,-427.25 460.919,-430.75"/>
</g>
<!-- n. peak\noverlap&#45; -->
<g id="n. peak\noverlap&#45;" class="node"><title>n. peak\noverlap&#45;</title>
<g id="a_n. peak\noverlap&#45;"><a xlink:href=".././peak/macs2/overlap/967_1_S31_L007_R1_001.nodup.tn5_967_2_S35_L008_R1_001.nodup.tn5.pf.500K.pval0.01.naive_overlap.narrowPeak.gz" xlink:title="./peak/macs2/overlap/967_1_S31_L007_R1_001.nodup.tn5_967_2_S35_L008_R1_001.nodup.tn5.pf.500K.pval0.01.naive_overlap.narrowPeak.gz" target="_blank">
<ellipse fill="whitesmoke" stroke="black" cx="955.228" cy="-251" rx="27" ry="18"/>
<text text-anchor="middle" x="955.228" y="-254" font-family="Times,serif" font-size="10.00">n. peak</text>
<text text-anchor="middle" x="955.228" y="-243" font-family="Times,serif" font-size="10.00">overlap</text>
</a>
</g>
</g>
<!-- n. peak\np&#45;val&lt;0.01&#45;pooled_rep -->
<g id="n. peak\np&#45;val&lt;0.01&#45;pooled_rep" class="node"><title>n. peak\np&#45;val&lt;0.01&#45;pooled_rep</title>
<g id="a_n. peak\np&#45;val&lt;0.01&#45;pooled_rep"><a xlink:href=".././peak/macs2/pooled_rep/967_1_S31_L007_R1_001.nodup.tn5_967_2_S35_L008_R1_001.nodup.tn5.pf.narrowPeak.gz" xlink:title="./peak/macs2/pooled_rep/967_1_S31_L007_R1_001.nodup.tn5_967_2_S35_L008_R1_001.nodup.tn5.pf.narrowPeak.gz" target="_blank">
<ellipse fill="whitesmoke" stroke="black" cx="769.171" cy="-279" rx="29.1143" ry="18"/>
<text text-anchor="middle" x="769.171" y="-282" font-family="Times,serif" font-size="10.00">n. peak</text>
<text text-anchor="middle" x="769.171" y="-271" font-family="Times,serif" font-size="10.00">p&#45;val&lt;0.01</text>
</a>
</g>
</g>
<!-- IDR&#45;rep1&#45;rep2 -->
<g id="IDR&#45;rep1&#45;rep2" class="node"><title>IDR&#45;rep1&#45;rep2</title>
<path fill="limegreen" stroke="black" d="M878.228,-325C878.228,-325 848.228,-325 848.228,-325 842.228,-325 836.228,-319 836.228,-313 836.228,-313 836.228,-301 836.228,-301 836.228,-295 842.228,-289 848.228,-289 848.228,-289 878.228,-289 878.228,-289 884.228,-289 890.228,-295 890.228,-301 890.228,-301 890.228,-313 890.228,-313 890.228,-319 884.228,-325 878.228,-325"/>
<text text-anchor="middle" x="863.228" y="-303.9" font-family="Times,serif" font-size="12.00">IDR</text>
</g>
<!-- n. peak\np&#45;val&lt;0.01&#45;pooled_rep&#45;&gt;IDR&#45;rep1&#45;rep2 -->
<g id="edge9" class="edge"><title>n. peak\np&#45;val&lt;0.01&#45;pooled_rep&#45;&gt;IDR&#45;rep1&#45;rep2</title>
<path fill="none" stroke="gray" d="M795.814,-286.8C806.8,-290.141 819.728,-294.073 831.244,-297.576"/>
<polygon fill="gray" stroke="gray" points="830.79,-299.267 836.083,-299.048 831.809,-295.918 830.79,-299.267"/>
</g>
<!-- NAIVE\nOVERLAP\nn. peak&#45; -->
<g id="NAIVE\nOVERLAP\nn. peak&#45;" class="node"><title>NAIVE\nOVERLAP\nn. peak&#45;</title>
<path fill="skyblue" stroke="black" d="M880.228,-270.5C880.228,-270.5 846.228,-270.5 846.228,-270.5 840.228,-270.5 834.228,-264.5 834.228,-258.5 834.228,-258.5 834.228,-243.5 834.228,-243.5 834.228,-237.5 840.228,-231.5 846.228,-231.5 846.228,-231.5 880.228,-231.5 880.228,-231.5 886.228,-231.5 892.228,-237.5 892.228,-243.5 892.228,-243.5 892.228,-258.5 892.228,-258.5 892.228,-264.5 886.228,-270.5 880.228,-270.5"/>
<text text-anchor="middle" x="863.228" y="-260.9" font-family="Times,serif" font-size="12.00">NAIVE</text>
<text text-anchor="middle" x="863.228" y="-247.9" font-family="Times,serif" font-size="12.00">OVERLAP</text>
<text text-anchor="middle" x="863.228" y="-234.9" font-family="Times,serif" font-size="12.00">n. peak</text>
</g>
<!-- n. peak\np&#45;val&lt;0.01&#45;pooled_rep&#45;&gt;NAIVE\nOVERLAP\nn. peak&#45; -->
<g id="edge3" class="edge"><title>n. peak\np&#45;val&lt;0.01&#45;pooled_rep&#45;&gt;NAIVE\nOVERLAP\nn. peak&#45;</title>
<path fill="none" stroke="gray" d="M795.814,-271.2C806.149,-268.057 818.201,-264.391 829.18,-261.052"/>
<polygon fill="gray" stroke="gray" points="829.865,-262.673 834.139,-259.544 828.846,-259.324 829.865,-262.673"/>
</g>
<!-- n. peak\np&#45;val&lt;0.01&#45;rep1 -->
<g id="n. peak\np&#45;val&lt;0.01&#45;rep1" class="node"><title>n. peak\np&#45;val&lt;0.01&#45;rep1</title>
<g id="a_n. peak\np&#45;val&lt;0.01&#45;rep1"><a xlink:href=".././peak/macs2/rep1/967_1_S31_L007_R1_001.nodup.tn5.pf.narrowPeak.gz" xlink:title="./peak/macs2/rep1/967_1_S31_L007_R1_001.nodup.tn5.pf.narrowPeak.gz" target="_blank">
<ellipse fill="whitesmoke" stroke="black" cx="675.057" cy="-88" rx="29.1143" ry="18"/>
<text text-anchor="middle" x="675.057" y="-91" font-family="Times,serif" font-size="10.00">n. peak</text>
<text text-anchor="middle" x="675.057" y="-80" font-family="Times,serif" font-size="10.00">p&#45;val&lt;0.01</text>
</a>
</g>
</g>
<!-- n. peak\np&#45;val&lt;0.01&#45;rep1&#45;&gt;IDR&#45;rep1&#45;rep2 -->
<g id="edge7" class="edge"><title>n. peak\np&#45;val&lt;0.01&#45;rep1&#45;&gt;IDR&#45;rep1&#45;rep2</title>
<path fill="none" stroke="gray" d="M695.27,-101.406C700.864,-105.567 706.876,-110.299 712.114,-115 725.689,-127.18 726.568,-132.787 740.114,-145 767.476,-169.669 785.74,-164.382 806.228,-195 827.691,-227.074 807.435,-246.488 828.228,-279 829.549,-281.065 831.073,-283.053 832.727,-284.949"/>
<polygon fill="gray" stroke="gray" points="831.577,-286.28 836.284,-288.71 834.12,-283.875 831.577,-286.28"/>
</g>
<!-- n. peak\np&#45;val&lt;0.01&#45;rep1&#45;&gt;NAIVE\nOVERLAP\nn. peak&#45; -->
<g id="edge5" class="edge"><title>n. peak\np&#45;val&lt;0.01&#45;rep1&#45;&gt;NAIVE\nOVERLAP\nn. peak&#45;</title>
<path fill="none" stroke="gray" d="M701.762,-95.2887C730.164,-104.417 775.891,-122.423 806.228,-151 828.716,-172.183 844.525,-204.453 853.484,-226.571"/>
<polygon fill="gray" stroke="gray" points="851.931,-227.402 855.4,-231.406 855.185,-226.113 851.931,-227.402"/>
</g>
<!-- n. peak\np&#45;val&lt;0.01&#45;rep2 -->
<g id="n. peak\np&#45;val&lt;0.01&#45;rep2" class="node"><title>n. peak\np&#45;val&lt;0.01&#45;rep2</title>
<g id="a_n. peak\np&#45;val&lt;0.01&#45;rep2"><a xlink:href=".././peak/macs2/rep2/967_2_S35_L008_R1_001.nodup.tn5.pf.narrowPeak.gz" xlink:title="./peak/macs2/rep2/967_2_S35_L008_R1_001.nodup.tn5.pf.narrowPeak.gz" target="_blank">
<ellipse fill="whitesmoke" stroke="black" cx="675.057" cy="-470" rx="29.1143" ry="18"/>
<text text-anchor="middle" x="675.057" y="-473" font-family="Times,serif" font-size="10.00">n. peak</text>
<text text-anchor="middle" x="675.057" y="-462" font-family="Times,serif" font-size="10.00">p&#45;val&lt;0.01</text>
</a>
</g>
</g>
<!-- n. peak\np&#45;val&lt;0.01&#45;rep2&#45;&gt;IDR&#45;rep1&#45;rep2 -->
<g id="edge8" class="edge"><title>n. peak\np&#45;val&lt;0.01&#45;rep2&#45;&gt;IDR&#45;rep1&#45;rep2</title>
<path fill="none" stroke="gray" d="M704.182,-468.006C732.971,-464.582 777.455,-455.279 806.228,-430 836.263,-403.612 851.125,-357.86 857.706,-330.211"/>
<polygon fill="gray" stroke="gray" points="859.428,-330.533 858.84,-325.268 856.016,-329.75 859.428,-330.533"/>
</g>
<!-- n. peak\np&#45;val&lt;0.01&#45;rep2&#45;&gt;NAIVE\nOVERLAP\nn. peak&#45; -->
<g id="edge6" class="edge"><title>n. peak\np&#45;val&lt;0.01&#45;rep2&#45;&gt;NAIVE\nOVERLAP\nn. peak&#45;</title>
<path fill="none" stroke="gray" d="M696.055,-457.375C732.098,-434.583 804.41,-388.667 806.228,-386 834.07,-345.167 802.037,-318.91 828.228,-277 828.952,-275.842 829.747,-274.716 830.599,-273.624"/>
<polygon fill="gray" stroke="gray" points="832.162,-274.496 834.141,-269.582 829.53,-272.189 832.162,-274.496"/>
</g>
<!-- signal fc&#45;pooled_rep -->
<g id="signal fc&#45;pooled_rep" class="node"><title>signal fc&#45;pooled_rep</title>
<g id="a_signal fc&#45;pooled_rep"><a xlink:href=".././signal/macs2/pooled_rep/967_1_S31_L007_R1_001.nodup.tn5_967_2_S35_L008_R1_001.nodup.tn5.pf.fc.signal.bigwig" xlink:title="./signal/macs2/pooled_rep/967_1_S31_L007_R1_001.nodup.tn5_967_2_S35_L008_R1_001.nodup.tn5.pf.fc.signal.bigwig" target="_blank">
<ellipse fill="whitesmoke" stroke="black" cx="769.171" cy="-333" rx="27" ry="18"/>
<text text-anchor="middle" x="769.171" y="-330.5" font-family="Times,serif" font-size="10.00">signal fc</text>
</a>
</g>
</g>
<!-- signal fc&#45;rep1 -->
<g id="signal fc&#45;rep1" class="node"><title>signal fc&#45;rep1</title>
<g id="a_signal fc&#45;rep1"><a xlink:href=".././signal/macs2/rep1/967_1_S31_L007_R1_001.nodup.tn5.pf.fc.signal.bigwig" xlink:title="./signal/macs2/rep1/967_1_S31_L007_R1_001.nodup.tn5.pf.fc.signal.bigwig" target="_blank">
<ellipse fill="whitesmoke" stroke="black" cx="675.057" cy="-142" rx="27" ry="18"/>
<text text-anchor="middle" x="675.057" y="-139.5" font-family="Times,serif" font-size="10.00">signal fc</text>
</a>
</g>
</g>
<!-- signal fc&#45;rep2 -->
<g id="signal fc&#45;rep2" class="node"><title>signal fc&#45;rep2</title>
<g id="a_signal fc&#45;rep2"><a xlink:href=".././signal/macs2/rep2/967_2_S35_L008_R1_001.nodup.tn5.pf.fc.signal.bigwig" xlink:title="./signal/macs2/rep2/967_2_S35_L008_R1_001.nodup.tn5.pf.fc.signal.bigwig" target="_blank">
<ellipse fill="whitesmoke" stroke="black" cx="675.057" cy="-524" rx="27" ry="18"/>
<text text-anchor="middle" x="675.057" y="-521.5" font-family="Times,serif" font-size="10.00">signal fc</text>
</a>
</g>
</g>
<!-- signal p&#45;val&#45;pooled_rep -->
<g id="signal p&#45;val&#45;pooled_rep" class="node"><title>signal p&#45;val&#45;pooled_rep</title>
<g id="a_signal p&#45;val&#45;pooled_rep"><a xlink:href=".././signal/macs2/pooled_rep/967_1_S31_L007_R1_001.nodup.tn5_967_2_S35_L008_R1_001.nodup.tn5.pf.pval.signal.bigwig" xlink:title="./signal/macs2/pooled_rep/967_1_S31_L007_R1_001.nodup.tn5_967_2_S35_L008_R1_001.nodup.tn5.pf.pval.signal.bigwig" target="_blank">
<ellipse fill="whitesmoke" stroke="black" cx="769.171" cy="-225" rx="27" ry="18"/>
<text text-anchor="middle" x="769.171" y="-222.5" font-family="Times,serif" font-size="10.00">signal p&#45;val</text>
</a>
</g>
</g>
<!-- signal p&#45;val&#45;rep1 -->
<g id="signal p&#45;val&#45;rep1" class="node"><title>signal p&#45;val&#45;rep1</title>
<g id="a_signal p&#45;val&#45;rep1"><a xlink:href=".././signal/macs2/rep1/967_1_S31_L007_R1_001.nodup.tn5.pf.pval.signal.bigwig" xlink:title="./signal/macs2/rep1/967_1_S31_L007_R1_001.nodup.tn5.pf.pval.signal.bigwig" target="_blank">
<ellipse fill="whitesmoke" stroke="black" cx="675.057" cy="-34" rx="27" ry="18"/>
<text text-anchor="middle" x="675.057" y="-31.5" font-family="Times,serif" font-size="10.00">signal p&#45;val</text>
</a>
</g>
</g>
<!-- signal p&#45;val&#45;rep2 -->
<g id="signal p&#45;val&#45;rep2" class="node"><title>signal p&#45;val&#45;rep2</title>
<g id="a_signal p&#45;val&#45;rep2"><a xlink:href=".././signal/macs2/rep2/967_2_S35_L008_R1_001.nodup.tn5.pf.pval.signal.bigwig" xlink:title="./signal/macs2/rep2/967_2_S35_L008_R1_001.nodup.tn5.pf.pval.signal.bigwig" target="_blank">
<ellipse fill="whitesmoke" stroke="black" cx="675.057" cy="-416" rx="27" ry="18"/>
<text text-anchor="middle" x="675.057" y="-413.5" font-family="Times,serif" font-size="10.00">signal p&#45;val</text>
</a>
</g>
</g>
<!-- tag&#45;align&#45;pooled_rep -->
<g id="tag&#45;align&#45;pooled_rep" class="node"><title>tag&#45;align&#45;pooled_rep</title>
<g id="a_tag&#45;align&#45;pooled_rep"><a xlink:href=".././align/pooled_rep/967_1_S31_L007_R1_001.nodup.tn5_967_2_S35_L008_R1_001.nodup.tn5.tagAlign.gz" xlink:title="./align/pooled_rep/967_1_S31_L007_R1_001.nodup.tn5_967_2_S35_L008_R1_001.nodup.tn5.tagAlign.gz" target="_blank">
<ellipse fill="whitesmoke" stroke="black" cx="583" cy="-279" rx="27" ry="18"/>
<text text-anchor="middle" x="583" y="-276.5" font-family="Times,serif" font-size="10.00">tag&#45;align</text>
</a>
</g>
</g>
<!-- MACS2\np&#45;val&lt;0.01&#45;pooled_rep -->
<g id="MACS2\np&#45;val&lt;0.01&#45;pooled_rep" class="node"><title>MACS2\np&#45;val&lt;0.01&#45;pooled_rep</title>
<path fill="lightgreen" stroke="black" d="M690.057,-297C690.057,-297 660.057,-297 660.057,-297 654.057,-297 648.057,-291 648.057,-285 648.057,-285 648.057,-273 648.057,-273 648.057,-267 654.057,-261 660.057,-261 660.057,-261 690.057,-261 690.057,-261 696.057,-261 702.057,-267 702.057,-273 702.057,-273 702.057,-285 702.057,-285 702.057,-291 696.057,-297 690.057,-297"/>
<text text-anchor="middle" x="675.057" y="-282.4" font-family="Times,serif" font-size="12.00">MACS2</text>
<text text-anchor="middle" x="675.057" y="-269.4" font-family="Times,serif" font-size="12.00">p&#45;val&lt;0.01</text>
</g>
<!-- tag&#45;align&#45;pooled_rep&#45;&gt;MACS2\np&#45;val&lt;0.01&#45;pooled_rep -->
<g id="edge12" class="edge"><title>tag&#45;align&#45;pooled_rep&#45;&gt;MACS2\np&#45;val&lt;0.01&#45;pooled_rep</title>
<path fill="none" stroke="gray" d="M610.048,-279C620.227,-279 631.989,-279 642.632,-279"/>
<polygon fill="gray" stroke="gray" points="642.755,-280.75 647.755,-279 642.755,-277.25 642.755,-280.75"/>
</g>
<!-- tag&#45;align&#45;rep1&#45;&gt;tag&#45;align&#45;pooled_rep -->
<g id="edge1" class="edge"><title>tag&#45;align&#45;rep1&#45;&gt;tag&#45;align&#45;pooled_rep</title>
<path fill="none" stroke="gray" d="M503.754,-144.737C519.81,-172.288 551.79,-227.162 569.489,-257.532"/>
<polygon fill="gray" stroke="gray" points="568.173,-258.75 572.203,-262.188 571.197,-256.987 568.173,-258.75"/>
</g>
<!-- MACS2\np&#45;val&lt;0.01&#45;rep1 -->
<g id="MACS2\np&#45;val&lt;0.01&#45;rep1" class="node"><title>MACS2\np&#45;val&lt;0.01&#45;rep1</title>
<path fill="lightgreen" stroke="black" d="M598,-133C598,-133 568,-133 568,-133 562,-133 556,-127 556,-121 556,-121 556,-109 556,-109 556,-103 562,-97 568,-97 568,-97 598,-97 598,-97 604,-97 610,-103 610,-109 610,-109 610,-121 610,-121 610,-127 604,-133 598,-133"/>
<text text-anchor="middle" x="583" y="-118.4" font-family="Times,serif" font-size="12.00">MACS2</text>
<text text-anchor="middle" x="583" y="-105.4" font-family="Times,serif" font-size="12.00">p&#45;val&lt;0.01</text>
</g>
<!-- tag&#45;align&#45;rep1&#45;&gt;MACS2\np&#45;val&lt;0.01&#45;rep1 -->
<g id="edge21" class="edge"><title>tag&#45;align&#45;rep1&#45;&gt;MACS2\np&#45;val&lt;0.01&#45;rep1</title>
<path fill="none" stroke="gray" d="M519.453,-124.24C529.312,-122.783 540.691,-121.102 551.019,-119.577"/>
<polygon fill="gray" stroke="gray" points="551.303,-121.304 555.993,-118.842 550.791,-117.841 551.303,-121.304"/>
</g>
<!-- tag&#45;align&#45;rep2&#45;&gt;tag&#45;align&#45;pooled_rep -->
<g id="edge2" class="edge"><title>tag&#45;align&#45;rep2&#45;&gt;tag&#45;align&#45;pooled_rep</title>
<path fill="none" stroke="gray" d="M503.754,-412.374C519.81,-385.005 551.79,-330.495 569.489,-300.325"/>
<polygon fill="gray" stroke="gray" points="571.182,-300.898 572.203,-295.7 568.163,-299.127 571.182,-300.898"/>
</g>
<!-- MACS2\np&#45;val&lt;0.01&#45;rep2 -->
<g id="MACS2\np&#45;val&lt;0.01&#45;rep2" class="node"><title>MACS2\np&#45;val&lt;0.01&#45;rep2</title>
<path fill="lightgreen" stroke="black" d="M598,-474C598,-474 568,-474 568,-474 562,-474 556,-468 556,-462 556,-462 556,-450 556,-450 556,-444 562,-438 568,-438 568,-438 598,-438 598,-438 604,-438 610,-444 610,-450 610,-450 610,-462 610,-462 610,-468 604,-474 598,-474"/>
<text text-anchor="middle" x="583" y="-459.4" font-family="Times,serif" font-size="12.00">MACS2</text>
<text text-anchor="middle" x="583" y="-446.4" font-family="Times,serif" font-size="12.00">p&#45;val&lt;0.01</text>
</g>
<!-- tag&#45;align&#45;rep2&#45;&gt;MACS2\np&#45;val&lt;0.01&#45;rep2 -->
<g id="edge31" class="edge"><title>tag&#45;align&#45;rep2&#45;&gt;MACS2\np&#45;val&lt;0.01&#45;rep2</title>
<path fill="none" stroke="gray" d="M518.046,-436.378C528.196,-439.492 540.144,-443.158 550.948,-446.473"/>
<polygon fill="gray" stroke="gray" points="550.527,-448.174 555.82,-447.968 551.554,-444.828 550.527,-448.174"/>
</g>
<!-- BOWTIE2&#45;rep1&#45;&gt;bam\n33M&#45;rep1 -->
<g id="edge17" class="edge"><title>BOWTIE2&#45;rep1&#45;&gt;bam\n33M&#45;rep1</title>
<path fill="none" stroke="gray" d="M160.403,-128C169.974,-128 180.875,-128 190.818,-128"/>
<polygon fill="gray" stroke="gray" points="190.919,-129.75 195.919,-128 190.919,-126.25 190.919,-129.75"/>
</g>
<!-- BOWTIE2&#45;rep2&#45;&gt;bam\n71M&#45;rep2 -->
<g id="edge27" class="edge"><title>BOWTIE2&#45;rep2&#45;&gt;bam\n71M&#45;rep2</title>
<path fill="none" stroke="gray" d="M160.403,-429C169.974,-429 180.875,-429 190.818,-429"/>
<polygon fill="gray" stroke="gray" points="190.919,-430.75 195.919,-429 190.919,-427.25 190.919,-430.75"/>
</g>
<!-- FILTER&#45;rep1&#45;&gt;filt. bam\n15M&#45;rep1 -->
<g id="edge19" class="edge"><title>FILTER&#45;rep1&#45;&gt;filt. bam\n15M&#45;rep1</title>
<path fill="none" stroke="gray" d="M340.403,-128C349.974,-128 360.875,-128 370.818,-128"/>
<polygon fill="gray" stroke="gray" points="370.919,-129.75 375.919,-128 370.919,-126.25 370.919,-129.75"/>
</g>
<!-- FILTER&#45;rep2&#45;&gt;filt. bam\n27M&#45;rep2 -->
<g id="edge29" class="edge"><title>FILTER&#45;rep2&#45;&gt;filt. bam\n27M&#45;rep2</title>
<path fill="none" stroke="gray" d="M340.403,-429C349.974,-429 360.875,-429 370.818,-429"/>
<polygon fill="gray" stroke="gray" points="370.919,-430.75 375.919,-429 370.919,-427.25 370.919,-430.75"/>
</g>
<!-- IDR QC&#45;&#45;&gt;IDR QC log&#45; -->
<g id="edge11" class="edge"><title>IDR QC&#45;&#45;&gt;IDR QC log&#45;</title>
<path fill="none" stroke="gray" d="M1072.63,-307C1082.2,-307 1093.1,-307 1103.05,-307"/>
<polygon fill="gray" stroke="gray" points="1103.15,-308.75 1108.15,-307 1103.15,-305.25 1103.15,-308.75"/>
</g>
<!-- IDR&#45;rep1&#45;rep2&#45;&gt;IDR peak&#45;rep1&#45;rep2 -->
<g id="edge25" class="edge"><title>IDR&#45;rep1&#45;rep2&#45;&gt;IDR peak&#45;rep1&#45;rep2</title>
<path fill="none" stroke="gray" d="M890.26,-307C900.432,-307 912.187,-307 922.824,-307"/>
<polygon fill="gray" stroke="gray" points="922.943,-308.75 927.943,-307 922.943,-305.25 922.943,-308.75"/>
</g>
<!-- MACS2\np&#45;val&lt;0.01&#45;pooled_rep&#45;&gt;n. peak\np&#45;val&lt;0.01&#45;pooled_rep -->
<g id="edge13" class="edge"><title>MACS2\np&#45;val&lt;0.01&#45;pooled_rep&#45;&gt;n. peak\np&#45;val&lt;0.01&#45;pooled_rep</title>
<path fill="none" stroke="gray" d="M702.207,-279C712.354,-279 724.099,-279 734.84,-279"/>
<polygon fill="gray" stroke="gray" points="735.022,-280.75 740.022,-279 735.022,-277.25 735.022,-280.75"/>
</g>
<!-- MACS2\np&#45;val&lt;0.01&#45;pooled_rep&#45;&gt;signal fc&#45;pooled_rep -->
<g id="edge14" class="edge"><title>MACS2\np&#45;val&lt;0.01&#45;pooled_rep&#45;&gt;signal fc&#45;pooled_rep</title>
<path fill="none" stroke="gray" d="M702.207,-294.33C715.282,-301.995 731.007,-311.213 743.823,-318.727"/>
<polygon fill="gray" stroke="gray" points="743.205,-320.392 748.403,-321.412 744.975,-317.373 743.205,-320.392"/>
</g>
<!-- MACS2\np&#45;val&lt;0.01&#45;pooled_rep&#45;&gt;signal p&#45;val&#45;pooled_rep -->
<g id="edge15" class="edge"><title>MACS2\np&#45;val&lt;0.01&#45;pooled_rep&#45;&gt;signal p&#45;val&#45;pooled_rep</title>
<path fill="none" stroke="gray" d="M702.207,-263.67C715.282,-256.005 731.007,-246.787 743.823,-239.273"/>
<polygon fill="gray" stroke="gray" points="744.975,-240.627 748.403,-236.588 743.205,-237.608 744.975,-240.627"/>
</g>
<!-- MACS2\np&#45;val&lt;0.01&#45;rep1&#45;&gt;n. peak\np&#45;val&lt;0.01&#45;rep1 -->
<g id="edge22" class="edge"><title>MACS2\np&#45;val&lt;0.01&#45;rep1&#45;&gt;n. peak\np&#45;val&lt;0.01&#45;rep1</title>
<path fill="none" stroke="gray" d="M610.048,-107.19C620.59,-104.03 632.83,-100.36 643.766,-97.0815"/>
<polygon fill="gray" stroke="gray" points="644.402,-98.718 648.688,-95.6058 643.396,-95.3655 644.402,-98.718"/>
</g>
<!-- MACS2\np&#45;val&lt;0.01&#45;rep1&#45;&gt;signal fc&#45;rep1 -->
<g id="edge23" class="edge"><title>MACS2\np&#45;val&lt;0.01&#45;rep1&#45;&gt;signal fc&#45;rep1</title>
<path fill="none" stroke="gray" d="M610.048,-122.81C621.04,-126.105 633.879,-129.954 645.161,-133.337"/>
<polygon fill="gray" stroke="gray" points="644.931,-135.094 650.223,-134.854 645.936,-131.742 644.931,-135.094"/>
</g>
<!-- MACS2\np&#45;val&lt;0.01&#45;rep1&#45;&gt;signal p&#45;val&#45;rep1 -->
<g id="edge24" class="edge"><title>MACS2\np&#45;val&lt;0.01&#45;rep1&#45;&gt;signal p&#45;val&#45;rep1</title>
<path fill="none" stroke="gray" d="M604.435,-96.6198C619.33,-83.2229 639.404,-65.1679 654.17,-51.8872"/>
<polygon fill="gray" stroke="gray" points="655.638,-52.9207 658.185,-48.2758 653.297,-50.3184 655.638,-52.9207"/>
</g>
<!-- MACS2\np&#45;val&lt;0.01&#45;rep2&#45;&gt;n. peak\np&#45;val&lt;0.01&#45;rep2 -->
<g id="edge32" class="edge"><title>MACS2\np&#45;val&lt;0.01&#45;rep2&#45;&gt;n. peak\np&#45;val&lt;0.01&#45;rep2</title>
<path fill="none" stroke="gray" d="M610.048,-460.049C619.959,-461.59 631.371,-463.364 641.79,-464.984"/>
<polygon fill="gray" stroke="gray" points="641.604,-466.726 646.814,-465.765 642.142,-463.267 641.604,-466.726"/>
</g>
<!-- MACS2\np&#45;val&lt;0.01&#45;rep2&#45;&gt;signal fc&#45;rep2 -->
<g id="edge33" class="edge"><title>MACS2\np&#45;val&lt;0.01&#45;rep2&#45;&gt;signal fc&#45;rep2</title>
<path fill="none" stroke="gray" d="M608.134,-474.223C621.921,-484.633 639.067,-497.58 652.416,-507.659"/>
<polygon fill="gray" stroke="gray" points="651.384,-509.073 656.429,-510.69 653.493,-506.28 651.384,-509.073"/>
</g>
<!-- MACS2\np&#45;val&lt;0.01&#45;rep2&#45;&gt;signal p&#45;val&#45;rep2 -->
<g id="edge34" class="edge"><title>MACS2\np&#45;val&lt;0.01&#45;rep2&#45;&gt;signal p&#45;val&#45;rep2</title>
<path fill="none" stroke="gray" d="M610.048,-444.43C621.788,-439.216 635.636,-433.065 647.442,-427.821"/>
<polygon fill="gray" stroke="gray" points="648.168,-429.414 652.027,-425.785 646.747,-426.215 648.168,-429.414"/>
</g>
<!-- NAIVE\nOVERLAP\nn. peak&#45;&#45;&gt;n. peak\noverlap&#45; -->
<g id="edge4" class="edge"><title>NAIVE\nOVERLAP\nn. peak&#45;&#45;&gt;n. peak\noverlap&#45;</title>
<path fill="none" stroke="gray" d="M892.705,-251C902.353,-251 913.178,-251 923.026,-251"/>
<polygon fill="gray" stroke="gray" points="923.076,-252.75 928.076,-251 923.076,-249.25 923.076,-252.75"/>
</g>
</g>
</svg>
